<svg id="menu" xmlns="http://www.w3.org/2000/svg" width="26" height="26" viewBox="0 0 26 26">
  <path id="Контур_3" data-name="Контур 3" d="M0,0H26V26H0Z" fill="none"/>
  <path id="Контур_4" data-name="Контур 4" d="M4.111,18H21.889a1.006,1.006,0,1,0,0-2H4.111a1.006,1.006,0,1,0,0,2Zm0-5H21.889A1.063,1.063,0,0,0,23,12a1.063,1.063,0,0,0-1.111-1H4.111A1.063,1.063,0,0,0,3,12,1.063,1.063,0,0,0,4.111,13ZM3,7A1.063,1.063,0,0,0,4.111,8H21.889A1.063,1.063,0,0,0,23,7a1.063,1.063,0,0,0-1.111-1H4.111A1.063,1.063,0,0,0,3,7Z" transform="translate(0 1)" fill="#6c5dd2"/>
</svg>
